<?xml version="1.0" encoding="utf-8"?><!-- Uploaded to: SVG Repo, www.svgrepo.com, Generator: SVG Repo Mixer Tools -->
<svg fill="#000000" width="800px" height="800px" viewBox="0 0 24 24" xmlns="http://www.w3.org/2000/svg" id="download-alt" class="icon glyph"><path d="M11.29,16.71h0a1.15,1.15,0,0,0,.33.21.94.94,0,0,0,.76,0,1.15,1.15,0,0,0,.33-.21h0l4-4a1,1,0,0,0-1.42-1.42L13,13.59V3a1,1,0,0,0-2,0V13.59l-2.29-2.3a1,1,0,1,0-1.42,1.42Z"></path><path d="M19,20H5a1,1,0,0,0,0,2H19a1,1,0,0,0,0-2Z"></path></svg>