<?xml version="1.0" encoding="UTF-8" standalone="no"?><!DOCTYPE svg PUBLIC "-//W3C//DTD SVG 1.1//EN" "http://www.w3.org/Graphics/SVG/1.1/DTD/svg11.dtd"><svg width="100%" height="100%" viewBox="0 0 31 31" version="1.1" xmlns="http://www.w3.org/2000/svg" xmlns:xlink="http://www.w3.org/1999/xlink" xml:space="preserve" xmlns:serif="http://www.serif.com/" style="fill-rule:evenodd;clip-rule:evenodd;stroke-linecap:round;stroke-linejoin:round;stroke-miterlimit:1.5;"><rect x="0" y="0" width="30.7" height="30.7" style="fill:#2d586e;"/><g><path d="M8.3,10.2l4.5,-6.9c0.1,-0.1 0.2,-0.1 0.4,-0.1l13,7.5m1.5,7l-5.5,9.6c-0.1,0.1 -0.2,0.1 -0.4,0.1l-16.9,-9.7c-0.1,-0.1 -0.2,-0.2 -0.1,-0.4m25.3,-4.4c0.1,0.1 0.2,0.2 0.1,0.4" style="fill:none;stroke:#fff;stroke-width:0.8px;"/></g><g><path d="M2.4,17c-0.5,0 -0.9,-0.1 -1.3,-0.3c-0.4,-0.2 -0.7,-0.4 -1,-0.7l0.8,-0.7c0.2,0.3 0.5,0.4 0.7,0.6c0.3,0.1 0.6,0.2 0.9,0.2c0.1,0 0.3,-0 0.4,-0c0.1,-0 0.2,-0.1 0.3,-0.1c0.1,-0.1 0.1,-0.1 0.2,-0.2c0,-0.1 0.1,-0.2 0.1,-0.3c0,-0.2 -0.1,-0.3 -0.2,-0.5c-0.1,-0.1 -0.2,-0.1 -0.3,-0.2c-0.2,-0.1 -0.4,-0.1 -0.6,-0.2c-0.4,-0.1 -0.8,-0.2 -1,-0.4c-0.3,-0.1 -0.5,-0.3 -0.6,-0.5c-0.1,-0.1 -0.2,-0.3 -0.2,-0.5c-0.1,-0.2 -0.1,-0.3 -0.1,-0.5c0,-0.2 0.1,-0.5 0.2,-0.7c0.1,-0.2 0.3,-0.4 0.4,-0.5c0.2,-0.1 0.4,-0.3 0.7,-0.3c0.3,-0.1 0.5,-0.1 0.8,-0.1c0.3,0 0.5,0 0.8,0.1c0.3,0.1 0.5,0.2 0.7,0.3c0.2,0.1 0.4,0.3 0.6,0.5l-0.6,0.7c-0.1,-0.1 -0.3,-0.3 -0.5,-0.4c-0.2,-0.1 -0.3,-0.2 -0.5,-0.2c-0.2,-0.1 -0.3,-0.1 -0.5,-0.1c-0.2,0 -0.3,0 -0.4,0c-0.1,0 -0.2,0.1 -0.3,0.1c-0.1,0.1 -0.1,0.1 -0.2,0.2c-0,0.1 -0.1,0.2 -0.1,0.3c0,0.1 0,0.2 0.1,0.3c0,0.1 0.1,0.2 0.2,0.2c0.1,0.1 0.2,0.1 0.4,0.2c0.2,0.1 0.4,0.1 0.6,0.2c0.4,0.1 0.7,0.2 0.9,0.3c0.2,0.1 0.4,0.2 0.6,0.4c0.1,0.1 0.2,0.3 0.3,0.5c0.1,0.2 0.1,0.4 0.1,0.6c0,0.3 -0.1,0.6 -0.3,0.9c-0.2,0.3 -0.4,0.5 -0.7,0.6c-0.3,0.1 -0.7,0.2 -1,0.2Z" style="fill:#fff;fill-rule:nonzero;"/><path d="M5.7,16.9l0,-5.7l1.1,0l0,1.2l-0.2,0.1c0.1,-0.3 0.2,-0.5 0.4,-0.7c0.2,-0.2 0.5,-0.4 0.8,-0.5c0.3,-0.1 0.6,-0.2 0.9,-0.2c0.4,0 0.8,0.1 1.1,0.3c0.3,0.2 0.5,0.4 0.7,0.8c0.1,0.3 0.2,0.8 0.2,1.3l0,3.5l-1.1,0l0,-3.4c0,-0.3 -0,-0.6 -0.1,-0.8c-0.1,-0.2 -0.2,-0.4 -0.4,-0.5c-0.2,-0.1 -0.4,-0.1 -0.7,-0.1c-0.2,0 -0.4,0 -0.6,0.1c-0.2,0.1 -0.3,0.2 -0.5,0.3c-0.1,0.1 -0.2,0.3 -0.3,0.4c-0.1,0.2 -0.1,0.3 -0.1,0.5l0,3.5l-1.1,0Z" style="fill:#fff;fill-rule:nonzero;"/><path d="M14.4,17c-0.5,0 -0.9,-0.1 -1.3,-0.4c-0.4,-0.3 -0.7,-0.6 -0.9,-1.1c-0.2,-0.5 -0.3,-1 -0.3,-1.5c0,-0.6 0.1,-1.1 0.4,-1.5c0.2,-0.4 0.6,-0.8 1,-1.1c0.4,-0.3 0.9,-0.4 1.4,-0.4c0.3,0 0.6,0 0.8,0.1c0.2,0.1 0.5,0.2 0.7,0.4c0.2,0.2 0.3,0.3 0.5,0.5c0.1,0.2 0.2,0.4 0.2,0.7l-0.3,-0.1l0,-1.5l1.1,0l0,5.7l-1.1,0l0,-1.4l0.3,-0.1c-0,0.2 -0.1,0.4 -0.3,0.6c-0.1,0.2 -0.3,0.4 -0.5,0.5c-0.2,0.1 -0.4,0.3 -0.7,0.3c-0.3,0.1 -0.5,0.1 -0.8,0.1Zm0.3,-1c0.3,0 0.6,-0.1 0.9,-0.3c0.3,-0.2 0.5,-0.4 0.6,-0.7c0.1,-0.3 0.2,-0.6 0.2,-1c0,-0.4 -0.1,-0.7 -0.2,-1c-0.1,-0.3 -0.4,-0.5 -0.6,-0.7c-0.3,-0.2 -0.6,-0.3 -0.9,-0.3c-0.3,0 -0.6,0.1 -0.9,0.3c-0.3,0.2 -0.5,0.4 -0.6,0.7c-0.1,0.3 -0.2,0.6 -0.2,1c0,0.4 0.1,0.7 0.2,1c0.1,0.3 0.4,0.5 0.6,0.7c0.3,0.2 0.6,0.3 0.9,0.3Z" style="fill:#fff;fill-rule:nonzero;"/><path d="M19.1,19.3l0,-8.1l1.1,0l0,1.3l-0.2,-0.1c0,-0.2 0.2,-0.4 0.4,-0.6c0.2,-0.2 0.5,-0.4 0.7,-0.5c0.3,-0.1 0.6,-0.2 0.9,-0.2c0.5,0 1,0.1 1.4,0.4c0.4,0.3 0.7,0.6 1,1c0.2,0.4 0.3,1 0.3,1.5c0,0.6 -0.1,1.1 -0.3,1.5c-0.2,0.4 -0.5,0.8 -0.9,1.1c-0.4,0.3 -0.9,0.4 -1.4,0.4c-0.3,0 -0.7,-0.1 -1,-0.2c-0.3,-0.1 -0.6,-0.3 -0.8,-0.5c-0.2,-0.2 -0.4,-0.4 -0.4,-0.7l0.3,-0.2l0,3.8l-1.1,-0Zm2.8,-3.3c0.3,0 0.6,-0.1 0.9,-0.3c0.3,-0.2 0.5,-0.4 0.6,-0.7c0.2,-0.3 0.2,-0.6 0.2,-1c0,-0.4 -0.1,-0.7 -0.2,-1c-0.1,-0.3 -0.4,-0.5 -0.6,-0.7c-0.3,-0.2 -0.6,-0.3 -0.9,-0.3c-0.3,0 -0.6,0.1 -0.9,0.2c-0.3,0.2 -0.5,0.4 -0.6,0.7c-0.2,0.3 -0.2,0.6 -0.2,1c0,0.4 0.1,0.7 0.2,1c0.2,0.3 0.4,0.5 0.6,0.7c0.3,0.2 0.6,0.3 0.9,0.3Z" style="fill:#fff;fill-rule:nonzero;"/><path d="M27.9,17c-0.5,0 -0.9,-0.1 -1.3,-0.3c-0.4,-0.2 -0.7,-0.4 -1,-0.7l0.8,-0.7c0.2,0.3 0.5,0.4 0.7,0.6c0.3,0.1 0.6,0.2 0.9,0.2c0.1,0 0.3,-0 0.4,-0c0.1,-0 0.2,-0.1 0.3,-0.1c0.1,-0.1 0.1,-0.1 0.2,-0.2c0,-0.1 0.1,-0.2 0.1,-0.3c0,-0.2 -0.1,-0.3 -0.2,-0.5c-0.1,-0.1 -0.2,-0.1 -0.3,-0.2c-0.2,-0.1 -0.4,-0.1 -0.6,-0.2c-0.4,-0.1 -0.8,-0.2 -1,-0.4c-0.3,-0.1 -0.5,-0.3 -0.6,-0.5c-0.1,-0.1 -0.2,-0.3 -0.2,-0.5c-0.1,-0.2 -0.1,-0.3 -0.1,-0.5c0,-0.2 0.1,-0.5 0.2,-0.7c0.1,-0.2 0.3,-0.4 0.4,-0.5c0.2,-0.1 0.4,-0.3 0.7,-0.3c0.3,-0.1 0.5,-0.1 0.8,-0.1c0.3,0 0.5,0 0.8,0.1c0.3,0.1 0.5,0.2 0.7,0.3c0.2,0.1 0.4,0.3 0.6,0.5l-0.6,0.7c-0.1,-0.1 -0.3,-0.3 -0.5,-0.4c-0.2,-0.1 -0.3,-0.2 -0.5,-0.2c-0.2,-0.1 -0.3,-0.1 -0.5,-0.1c-0.2,0 -0.3,0 -0.4,0c-0.1,0 -0.2,0.1 -0.3,0.1c-0.1,0.1 -0.1,0.1 -0.2,0.2c-0,0.1 -0.1,0.2 -0.1,0.3c0,0.1 0,0.2 0.1,0.3c0,0.1 0.1,0.2 0.2,0.2c0.1,0.1 0.2,0.1 0.4,0.2c0.2,0.1 0.4,0.1 0.6,0.2c0.4,0.1 0.7,0.2 0.9,0.3c0.2,0.1 0.4,0.2 0.6,0.4c0.1,0.1 0.2,0.3 0.3,0.5c0.1,0.2 0.1,0.4 0.1,0.6c0,0.3 -0.1,0.6 -0.3,0.9c-0.2,0.3 -0.4,0.5 -0.7,0.6c-0.3,0.1 -0.7,0.2 -1,0.2Z" style="fill:#fff;fill-rule:nonzero;"/></g></svg>