<?xml version="1.0" encoding="UTF-8" standalone="no"?><!DOCTYPE svg PUBLIC "-//W3C//DTD SVG 1.1//EN" "http://www.w3.org/Graphics/SVG/1.1/DTD/svg11.dtd"><svg width="100%" height="100%" viewBox="0 0 840 700" version="1.1" xmlns="http://www.w3.org/2000/svg" xmlns:xlink="http://www.w3.org/1999/xlink" xml:space="preserve" xmlns:serif="http://www.serif.com/" style="fill-rule:evenodd;clip-rule:evenodd;stroke-linecap:round;stroke-linejoin:round;stroke-miterlimit:1.5;"><g><path d="M226.069,209.67l122.705,-189.873c1.826,-3.168 6.394,-3.96 10.195,-1.769l355.436,204.947m40.692,193.207l-152.237,264.022c-1.826,3.168 -6.394,3.96 -10.195,1.769l-462.697,-266.794c-3.8,-2.191 -5.403,-6.542 -3.576,-9.709m695.273,-120.648c3.8,2.191 5.403,6.542 3.576,9.709" style="fill:none;stroke:#2d586e;stroke-width:25px;"/></g><g><path d="M62.1,395.513c-13.2,0 -25.1,-2.3 -35.7,-6.9c-10.6,-4.6 -19.4,-11.4 -26.4,-20.4l21,-18c6,7 12.55,12.05 19.65,15.15c7.1,3.1 15.15,4.65 24.15,4.65c3.6,0 6.95,-0.45 10.05,-1.35c3.1,-0.9 5.8,-2.25 8.1,-4.05c2.3,-1.8 4.05,-3.95 5.25,-6.45c1.2,-2.5 1.8,-5.25 1.8,-8.25c0,-5.2 -1.9,-9.4 -5.7,-12.6c-2,-1.4 -5.15,-2.95 -9.45,-4.65c-4.3,-1.7 -9.85,-3.45 -16.65,-5.25c-11.6,-3 -21.1,-6.4 -28.5,-10.2c-7.4,-3.8 -13.1,-8.1 -17.1,-12.9c-3,-3.8 -5.2,-7.95 -6.6,-12.45c-1.4,-4.5 -2.1,-9.45 -2.1,-14.85c0,-6.6 1.45,-12.65 4.35,-18.15c2.9,-5.5 6.9,-10.3 12,-14.4c5.1,-4.1 11.1,-7.25 18,-9.45c6.9,-2.2 14.25,-3.3 22.05,-3.3c7.4,0 14.75,1 22.05,3c7.3,2 14.05,4.9 20.25,8.7c6.2,3.8 11.4,8.3 15.6,13.5l-17.7,19.5c-3.8,-3.8 -7.95,-7.15 -12.45,-10.05c-4.5,-2.9 -9.05,-5.15 -13.65,-6.75c-4.6,-1.6 -8.8,-2.4 -12.6,-2.4c-4.2,0 -8,0.4 -11.4,1.2c-3.4,0.8 -6.25,2 -8.55,3.6c-2.3,1.6 -4.05,3.6 -5.25,6c-1.2,2.4 -1.8,5.1 -1.8,8.1c0.2,2.6 0.85,5.05 1.95,7.35c1.1,2.3 2.65,4.25 4.65,5.85c2.2,1.6 5.5,3.3 9.9,5.1c4.4,1.8 10,3.5 16.8,5.1c10,2.6 18.25,5.45 24.75,8.55c6.5,3.1 11.65,6.65 15.45,10.65c4,3.8 6.8,8.2 8.4,13.2c1.6,5 2.4,10.6 2.4,16.8c0,9 -2.55,17.05 -7.65,24.15c-5.1,7.1 -11.95,12.65 -20.55,16.65c-8.6,4 -18.2,6 -28.8,6Z" style="fill:#2d586e;fill-rule:nonzero;"/><path d="M153.3,392.513l-0,-157.5l30.9,0l0,32.4l-5.4,3.6c2,-7 5.9,-13.45 11.7,-19.35c5.8,-5.9 12.7,-10.7 20.7,-14.4c8,-3.7 16.2,-5.55 24.6,-5.55c12,0 22,2.35 30,7.05c8,4.7 14,11.85 18,21.45c4,9.6 6,21.7 6,36.3l0,96l-30.9,0l0,-93.9c0,-9 -1.2,-16.45 -3.6,-22.35c-2.4,-5.9 -6.1,-10.2 -11.1,-12.9c-5,-2.7 -11.2,-3.85 -18.6,-3.45c-6,0 -11.5,0.95 -16.5,2.85c-5,1.9 -9.35,4.55 -13.05,7.95c-3.7,3.4 -6.6,7.35 -8.7,11.85c-2.1,4.5 -3.15,9.35 -3.15,14.55l0,95.4l-30.9,-0Z" style="fill:#2d586e;fill-rule:nonzero;"/><path d="M392.4,395.513c-13,0 -24.85,-3.6 -35.55,-10.8c-10.7,-7.2 -19.25,-17 -25.65,-29.4c-6.4,-12.4 -9.6,-26.4 -9.6,-42c0,-15.8 3.25,-29.85 9.75,-42.15c6.5,-12.3 15.3,-21.95 26.4,-28.95c11.1,-7 23.55,-10.5 37.35,-10.5c8.2,0 15.7,1.2 22.5,3.6c6.8,2.4 12.75,5.75 17.85,10.05c5.1,4.3 9.3,9.25 12.6,14.85c3.3,5.6 5.35,11.6 6.15,18l-6.9,-2.4l-0,-40.8l31.2,0l0,157.5l-31.2,0l0,-37.5l7.2,-2.1c-1.2,5.4 -3.65,10.65 -7.35,15.75c-3.7,5.1 -8.4,9.65 -14.1,13.65c-5.7,4 -12,7.2 -18.9,9.6c-6.9,2.4 -14.15,3.6 -21.75,3.6Zm8.1,-28.5c9.4,0 17.7,-2.3 24.9,-6.9c7.2,-4.6 12.85,-10.95 16.95,-19.05c4.1,-8.1 6.15,-17.35 6.15,-27.75c0,-10.2 -2.05,-19.3 -6.15,-27.3c-4.1,-8 -9.75,-14.3 -16.95,-18.9c-7.2,-4.6 -15.5,-6.9 -24.9,-6.9c-9.2,0 -17.35,2.3 -24.45,6.9c-7.1,4.6 -12.7,10.9 -16.8,18.9c-4.1,8 -6.15,17.1 -6.15,27.3c0,10.4 2.05,19.65 6.15,27.75c4.1,8.1 9.7,14.45 16.8,19.05c7.1,4.6 15.25,6.9 24.45,6.9Z" style="fill:#2d586e;fill-rule:nonzero;"/><path d="M521.7,458.513l-0,-223.5l31.2,0l0,36l-4.8,-2.7c1.2,-6 4.6,-11.75 10.2,-17.25c5.6,-5.5 12.45,-10 20.55,-13.5c8.1,-3.5 16.45,-5.25 25.05,-5.25c14.2,0 26.8,3.5 37.8,10.5c11,7 19.7,16.6 26.1,28.8c6.4,12.2 9.6,26.2 9.6,42c0,15.6 -3.15,29.55 -9.45,41.85c-6.3,12.3 -14.95,22 -25.95,29.1c-11,7.1 -23.4,10.65 -37.2,10.65c-9.2,0 -18.1,-1.85 -26.7,-5.55c-8.6,-3.7 -15.9,-8.45 -21.9,-14.25c-6,-5.8 -9.7,-11.8 -11.1,-18l7.8,-4.2l0,105.3l-31.2,0Zm78,-91.8c9.2,0 17.4,-2.3 24.6,-6.9c7.2,-4.6 12.9,-10.9 17.1,-18.9c4.2,-8 6.3,-17.1 6.3,-27.3c0,-10.2 -2.05,-19.25 -6.15,-27.15c-4.1,-7.9 -9.75,-14.15 -16.95,-18.75c-7.2,-4.6 -15.5,-6.9 -24.9,-6.9c-9.4,0 -17.7,2.25 -24.9,6.75c-7.2,4.5 -12.9,10.75 -17.1,18.75c-4.2,8 -6.3,17.1 -6.3,27.3c0,10.2 2.1,19.3 6.3,27.3c4.2,8 9.9,14.3 17.1,18.9c7.2,4.6 15.5,6.9 24.9,6.9Z" style="fill:#2d586e;fill-rule:nonzero;"/><path d="M763.5,395.513c-13.2,0 -25.1,-2.3 -35.7,-6.9c-10.6,-4.6 -19.4,-11.4 -26.4,-20.4l21,-18c6,7 12.55,12.05 19.65,15.15c7.1,3.1 15.15,4.65 24.15,4.65c3.6,0 6.95,-0.45 10.05,-1.35c3.1,-0.9 5.8,-2.25 8.1,-4.05c2.3,-1.8 4.05,-3.95 5.25,-6.45c1.2,-2.5 1.8,-5.25 1.8,-8.25c0,-5.2 -1.9,-9.4 -5.7,-12.6c-2,-1.4 -5.15,-2.95 -9.45,-4.65c-4.3,-1.7 -9.85,-3.45 -16.65,-5.25c-11.6,-3 -21.1,-6.4 -28.5,-10.2c-7.4,-3.8 -13.1,-8.1 -17.1,-12.9c-3,-3.8 -5.2,-7.95 -6.6,-12.45c-1.4,-4.5 -2.1,-9.45 -2.1,-14.85c0,-6.6 1.45,-12.65 4.35,-18.15c2.9,-5.5 6.9,-10.3 12,-14.4c5.1,-4.1 11.1,-7.25 18,-9.45c6.9,-2.2 14.25,-3.3 22.05,-3.3c7.4,0 14.75,1 22.05,3c7.3,2 14.05,4.9 20.25,8.7c6.2,3.8 11.4,8.3 15.6,13.5l-17.7,19.5c-3.8,-3.8 -7.95,-7.15 -12.45,-10.05c-4.5,-2.9 -9.05,-5.15 -13.65,-6.75c-4.6,-1.6 -8.8,-2.4 -12.6,-2.4c-4.2,0 -8,0.4 -11.4,1.2c-3.4,0.8 -6.25,2 -8.55,3.6c-2.3,1.6 -4.05,3.6 -5.25,6c-1.2,2.4 -1.8,5.1 -1.8,8.1c0.2,2.6 0.85,5.05 1.95,7.35c1.1,2.3 2.65,4.25 4.65,5.85c2.2,1.6 5.5,3.3 9.9,5.1c4.4,1.8 10,3.5 16.8,5.1c10,2.6 18.25,5.45 24.75,8.55c6.5,3.1 11.65,6.65 15.45,10.65c4,3.8 6.8,8.2 8.4,13.2c1.6,5 2.4,10.6 2.4,16.8c0,9 -2.55,17.05 -7.65,24.15c-5.1,7.1 -11.95,12.65 -20.55,16.65c-8.6,4 -18.2,6 -28.8,6Z" style="fill:#2d586e;fill-rule:nonzero;"/></g></svg>